<svg xmlns="http://www.w3.org/2000/svg" xmlns:xlink="http://www.w3.org/1999/xlink" viewBox="0 0 109.79 115.78"><defs><style>.cls-1,.cls-12,.cls-13,.cls-14{fill:none;}.cls-2{fill:#a3f076;}.cls-3{clip-path:url(#clip-path);}.cls-4,.cls-7{fill:#fff;}.cls-5{fill:#93c1a7;}.cls-10,.cls-12,.cls-13,.cls-14,.cls-15,.cls-16,.cls-17,.cls-18,.cls-5,.cls-6,.cls-7,.cls-8,.cls-9{stroke:#231815;stroke-linecap:round;stroke-linejoin:round;}.cls-10,.cls-13,.cls-5,.cls-6,.cls-7{stroke-width:1.47px;}.cls-6{fill:#a15524;}.cls-8{fill:#c37730;}.cls-15,.cls-16,.cls-18,.cls-8{stroke-width:1.37px;}.cls-9{fill:#e95c39;}.cls-12,.cls-9{stroke-width:1.18px;}.cls-10{fill:#e6955f;}.cls-11{fill:#231815;}.cls-14{stroke-width:0.59px;}.cls-15{fill:#e5944f;}.cls-16,.cls-17{fill:#f9d9b1;}.cls-17{stroke-width:0.79px;}.cls-18{fill:#bb6337;}.cls-19{fill:#008400;}</style><clipPath id="clip-path" transform="translate(2.63)"><path class="cls-1" d="M104.12,93.15A11.16,11.16,0,0,1,93,104.29H11.12A11.17,11.17,0,0,1,0,93.15v-82A11.16,11.16,0,0,1,11.12,0H93a11.16,11.16,0,0,1,11.12,11.14Z"/></clipPath></defs><g id="レイヤー_2" data-name="レイヤー 2"><g id="レイヤー_1-2" data-name="レイヤー 1"><rect class="cls-2" x="2.63" width="104.12" height="104.29" rx="11.13"/><g class="cls-3"><ellipse class="cls-4" cx="79.9" cy="26.39" rx="19.75" ry="19.78"/><path class="cls-5" d="M105.49,88.16a71,71,0,0,0-12.08.41c-4.26.69-8.12,1.38-8.12,1.38L18,90.29C9.78,88.84-1.9,89.44-1.9,89.44L-.7,104.8,39.69,115l62.64-6.14,4.09-11.78Z" transform="translate(2.63)"/><path class="cls-6" d="M18.81,85.08s-5.88-.68-9.2-1.36-5.71-2.82-3.07-4S20,76.55,27.51,76a283.09,283.09,0,0,1,30-.51c9.71.51,21.3,1,25.14,1.45s14.23,1.2,16.62,3.16-.43,3-2.73,3.76-12,1.62-12,1.62" transform="translate(2.63)"/><path class="cls-5" d="M17.62,94.22a48.81,48.81,0,0,1,4.69-17.08l13.42-5.89,35.54.64,9.59,5.34a52.6,52.6,0,0,1,5.37,17" transform="translate(2.63)"/><path class="cls-7" d="M40,78.13a5.91,5.91,0,0,1-1.1,6c-1.84,1.84-4.44,2.67-7.08,1a5.4,5.4,0,0,1-1.91-6.91,6.37,6.37,0,0,1,5.62-3.29A5,5,0,0,1,40,78.13Z" transform="translate(2.63)"/><path class="cls-7" d="M63.6,78.89a5.2,5.2,0,0,0,1.36,6,6.17,6.17,0,0,0,7.33.08c2.35-1.49,2.39-4.39,1.83-6.31A5.62,5.62,0,0,0,69.35,75C67.39,74.92,64.75,76.63,63.6,78.89Z" transform="translate(2.63)"/><path class="cls-8" d="M31.26,13.83a68.55,68.55,0,0,1,5.56-6.47c2-1.79,6.2-3.13,9.2-.77.58-.51,1.34-1.08,1.34-1.08s1.73,1,1.73,1.34-.9,1.41-.9,1.41A7.57,7.57,0,0,1,49.47,12a13,13,0,0,1-2.15,6.78,35.28,35.28,0,0,1-4.3,5" transform="translate(2.63)"/><path class="cls-9" d="M60.18,55.06s-3.1-2-3.61-2.41a1.66,1.66,0,0,1-.34-1.88c.25-.69.93-1.88.25-2.56s-5.2-.77-7.33-.43-3.32.94-3.15,1.54a6.53,6.53,0,0,1,.26,2.81A27.62,27.62,0,0,1,43.1,55" transform="translate(2.63)"/><path class="cls-10" d="M6.54,79.7C9.18,78.51,20,76.55,27.51,76a283.09,283.09,0,0,1,30-.51c9.71.51,21.3,1,25.14,1.45s14.23,1.2,16.62,3.16c-3.84-4.52-10.74-9.13-16.37-13C76.79,63,67.31,58.45,63.22,56.49a30.37,30.37,0,0,0-15.09-2.56c-5.54.42-8.35,2.3-17.13,7.59S5.94,79.79,5.94,79.79Z" transform="translate(2.63)"/><path class="cls-11" d="M50.35,83.55s-.34,1.7,1,1.62,1.26-.7,1.53-1.71C53,83,54,83.2,54.78,83.12s1.79-.85,1.79-1.54-1.37-1.53-4-1.53-5.84-.13-6.09,1.15,1.62,1.83,2.26,1.88S50.26,83.12,50.35,83.55Z" transform="translate(2.63)"/><path class="cls-11" d="M27.89,85.55c-.24.48-1.75-.17-2.86-.55s-2.34-.6-3-.81-.47-1.28.77-1.2a11.78,11.78,0,0,1,3.41,1.11C27.12,84.48,28.1,85.12,27.89,85.55Z" transform="translate(2.63)"/><path class="cls-11" d="M26.48,88c-.09.52-2,.18-2.89-.08s-2.31,0-2.65-.6.26-1.19,1.24-1a17.09,17.09,0,0,1,3.2.64C26.14,87.26,26.57,87.51,26.48,88Z" transform="translate(2.63)"/><path class="cls-12" d="M15.49,72.36s8.86-1.45,11.33-2,12.19-1.19,17-1.1,16.11-.18,21.91.34S77.62,70.66,82.14,71a59.14,59.14,0,0,1,8.18,1.53" transform="translate(2.63)"/><path class="cls-12" d="M26.31,64.85s7.5-1,12.45-1.45A104.22,104.22,0,0,1,55.12,63c7.75.35,20.71.43,22.75.94" transform="translate(2.63)"/><path class="cls-12" d="M35.09,59.22a74.38,74.38,0,0,1,15.68-1.28c8.35.25,15.09.34,16.11.6" transform="translate(2.63)"/><path class="cls-12" d="M17.71,74a24.54,24.54,0,0,0-3,2.47" transform="translate(2.63)"/><path class="cls-12" d="M23.42,73s-2.65,2.14-4.27,3.76" transform="translate(2.63)"/><path class="cls-12" d="M32.7,71.94a25.11,25.11,0,0,0-1.87,2.56" transform="translate(2.63)"/><path class="cls-12" d="M44.81,71.68a9,9,0,0,0-.34,3.07" transform="translate(2.63)"/><path class="cls-12" d="M55.29,72.19a22.31,22.31,0,0,1,.34,3.08" transform="translate(2.63)"/><path class="cls-12" d="M32.28,66.47a35.35,35.35,0,0,0-2.81,3.16" transform="translate(2.63)"/><path class="cls-12" d="M41.91,65.88l-1.62,3.24" transform="translate(2.63)"/><path class="cls-12" d="M50.69,65.62s0,2.65.08,3.41" transform="translate(2.63)"/><path class="cls-12" d="M59.47,66s1.87,2.05,2.47,2.9" transform="translate(2.63)"/><path class="cls-12" d="M69.1,66.3s3.23,1.8,4.34,3.67" transform="translate(2.63)"/><path class="cls-12" d="M77.28,67.16a45.33,45.33,0,0,1,4.51,2.3" transform="translate(2.63)"/><path class="cls-12" d="M64.83,71.77a21.73,21.73,0,0,1,2.22,2.81" transform="translate(2.63)"/><path class="cls-12" d="M78,73s3.15,2.22,3.66,3.59" transform="translate(2.63)"/><path class="cls-12" d="M86.91,74.07s2.55,1.71,3.32,3.33" transform="translate(2.63)"/><path class="cls-12" d="M41.23,60.67a25.17,25.17,0,0,0-2.75,2.73" transform="translate(2.63)"/><path class="cls-12" d="M50.26,55.89a4.37,4.37,0,0,0-.51,1.62" transform="translate(2.63)"/><path class="cls-12" d="M46.51,60.24s-.68,1.71-.94,2.65" transform="translate(2.63)"/><path class="cls-12" d="M52.48,60s.42,1.45.68,2.64" transform="translate(2.63)"/><path class="cls-12" d="M60.83,60.41s2,1.88,2.21,2.56" transform="translate(2.63)"/><path class="cls-7" d="M37.05,105.82s-7.24-3.24-9.71-7.25-2.13-6.91.34-8.37c3.32-2,10.14.69,15.42,1s13.81.77,18.33.25S70.8,89.18,74,89.09a4.06,4.06,0,0,1,4.35,4c-.09,1.36-.77,6.57-6.31,11.18s-8.95,5.55-8.95,5.55" transform="translate(2.63)"/><path class="cls-13" d="M34.41,89.86s-3,8.11-3.15,12.21" transform="translate(2.63)"/><path class="cls-13" d="M42.51,91.14s-2.22,8.11-1.11,14.68" transform="translate(2.63)"/><path class="cls-13" d="M51.28,91.65s-.59,11.44-.08,14.69" transform="translate(2.63)"/><path class="cls-13" d="M60.4,91.57s1.88,8.45.6,15" transform="translate(2.63)"/><path class="cls-13" d="M69.61,90s3.49,7.26,2.21,13.66" transform="translate(2.63)"/><path class="cls-11" d="M77.11,86.32c0,.76,2,.09,2.38-.09a10.58,10.58,0,0,1,2.3-.68c.64,0,.56-1.28-.34-1.36a6.42,6.42,0,0,0-3.06.89C77.79,85.47,77.06,85.59,77.11,86.32Z" transform="translate(2.63)"/><path class="cls-11" d="M78.85,88.67c0,.79,1.32.47,2.09.13s2.22-.09,2.35-.94-1.62-.86-2.77-.56S78.81,87.73,78.85,88.67Z" transform="translate(2.63)"/><path class="cls-11" d="M52.82,47.69c.68,1,1.11,3.59.25,4.1s-2.38.17-3.75.34a30.44,30.44,0,0,0-3.83.94s.79-.77.85-1.25-.62-1.62-.34-2.5,1.43-1.24,2.19-1.4S52.82,47.69,52.82,47.69Z" transform="translate(2.63)"/><path class="cls-14" d="M86,84.06A25,25,0,0,0,82.39,80" transform="translate(2.63)"/><path class="cls-14" d="M89,83.89a39.67,39.67,0,0,0-6.73-6.83" transform="translate(2.63)"/><path class="cls-14" d="M87.16,77.31s3.41,4.19,3.92,4.87a22.88,22.88,0,0,0,1.79,1.88" transform="translate(2.63)"/><path class="cls-14" d="M91,78s2.21,2.56,2.81,3.33,1.71,2.3,1.71,2.3" transform="translate(2.63)"/><path class="cls-14" d="M97.48,83s-2.9-3.33-3.75-4.69" transform="translate(2.63)"/><path class="cls-14" d="M99.09,82.27s-2-2.65-2.72-3.42" transform="translate(2.63)"/><path class="cls-14" d="M15.57,84.66s1.2-3.42,5.63-7.6" transform="translate(2.63)"/><path class="cls-14" d="M12.42,84s4.18-5.55,6.39-6.66" transform="translate(2.63)"/><path class="cls-14" d="M10.55,83.72a37.11,37.11,0,0,1,5.11-5.89" transform="translate(2.63)"/><path class="cls-14" d="M8.93,83.46s3.41-4.35,4.26-5.29" transform="translate(2.63)"/><path class="cls-14" d="M7,82.61a26.35,26.35,0,0,1,3.58-4" transform="translate(2.63)"/><path class="cls-15" d="M22.05,33.44s2.22,2.13,3.84,3.76,3.92,5.54,3.32,8.19a12.55,12.55,0,0,1-2.3,4.69s1.53,1.11,1.53,1.71A2.41,2.41,0,0,1,27,53.5c-.59.17-1.53-1.45-1.53-1.45a8.54,8.54,0,0,1-3.58,1.62c-1.87.26-4.09.43-6.13-1.11s-6.31-7.51-6.31-7.51L8.18,40l3.39-6,7.16-2.43Z" transform="translate(2.63)"/><path class="cls-16" d="M8.93,45.65a20.33,20.33,0,0,1,4.17-7,24.73,24.73,0,0,1,8-5.08c1.79-.68,1.45-1.87.77-3s-5.64-2.93-7.95-2.24a7,7,0,0,0-3.38,2.07,8.31,8.31,0,0,0-3.5-2.31,6.23,6.23,0,0,0-1.53,2.05L8,32.33A12.05,12.05,0,0,0,5.5,35.88a10.42,10.42,0,0,0-.07,7C6.2,44.79,7.73,46.24,8.93,45.65Z" transform="translate(2.63)"/><path class="cls-17" d="M23.78,39.05c-1,.49-.07,1.92.25,3s.45,2.62,1.47,2.56,1.47-.32,1.22-2S24.8,38.54,23.78,39.05Z" transform="translate(2.63)"/><path class="cls-11" d="M7.22,36c-.21.47.9,1.24,1.32.86s.05-.9-.29-1.11A.79.79,0,0,0,7.22,36Z" transform="translate(2.63)"/><path class="cls-11" d="M8.18,40c-.09.44.54.77.93.8s.93-.23.8-.8S8.34,39.21,8.18,40Z" transform="translate(2.63)"/><path class="cls-11" d="M11.92,32.84c-.35.4.13,1,.83,1.06s.86-.48.45-1A.81.81,0,0,0,11.92,32.84Z" transform="translate(2.63)"/><path class="cls-11" d="M15.69,31.56c-.46.46.09,1,.67,1.19.77.22,1.35-.42.74-1A1,1,0,0,0,15.69,31.56Z" transform="translate(2.63)"/><line class="cls-13" x1="11.05" y1="31.9" x2="10.62" y2="32.33"/><path class="cls-16" d="M30.87,24.58c-1.4-1.08-4-5.55-2.44-8.58,1.68-3.2,4.74-2.36,6.53-1.6s6.84,3.53,7.67,6.79S42,26,40.91,26.63a9,9,0,0,1-7.67-.57" transform="translate(2.63)"/><path class="cls-17" d="M46.6,11.14c-.65-.49-1.6.45-1.79,1.41A1.15,1.15,0,0,0,46.09,14C46.79,13.84,47.62,11.91,46.6,11.14Z" transform="translate(2.63)"/><path class="cls-11" d="M30.17,18c-.29.69.7,1.41,1.28,1.22a.85.85,0,0,0,0-1.48C30.87,17.48,30.36,17.54,30.17,18Z" transform="translate(2.63)"/><path class="cls-11" d="M35.16,17.67c-.47.5.24,1.59.89,1.22C36.94,18.37,35.92,16.84,35.16,17.67Z" transform="translate(2.63)"/><path class="cls-11" d="M36.82,22.15c-.66.48.71,2,1.34,1C38.61,22.41,37.52,21.64,36.82,22.15Z" transform="translate(2.63)"/><path class="cls-18" d="M83.54,44.37S79.19,46.29,77,48.85a8.16,8.16,0,0,0-2.17,6.44c-.64.43-1.24.9-1.24.9l1,1.62L76.21,57a11.5,11.5,0,0,0,3.07,2.43c1.75.86,7.33.86,11.16-2.82l2.31-5L88,43.21Z" transform="translate(2.63)"/><path class="cls-16" d="M83.24,44.62a7.82,7.82,0,0,1,3.58,1.32,12.47,12.47,0,0,1,3.75,6.83,13.49,13.49,0,0,1-.42,4.44A2.64,2.64,0,0,0,93,56.87,9.1,9.1,0,0,0,95.94,49c1.15.13,2.35.38,2.35.38s.34-1.71,0-2.13-1.92-.73-3.2-.73a7.66,7.66,0,0,0-5.33-4.91C87.5,41.08,83.84,41.59,83.24,44.62Z" transform="translate(2.63)"/><path class="cls-17" d="M80.39,49.4c.33.39.13,1.11-.56,2.05s-.38,2-1.15,2.39-1.47,0-1.15-1.58C77.92,50.43,79.88,48.8,80.39,49.4Z" transform="translate(2.63)"/><path class="cls-11" d="M88.19,44.79c-.17.43.51,1.15,1,.94s.21-1.11,0-1.19S88.37,44.34,88.19,44.79Z" transform="translate(2.63)"/><path class="cls-11" d="M92.83,48.76c0,.56,1,.9,1.28.6a.63.63,0,0,0-.21-1C93.47,48.12,92.83,48.38,92.83,48.76Z" transform="translate(2.63)"/><path class="cls-11" d="M92,52.94a.63.63,0,0,0,.43,1c.55.08.89-.34.55-.94A.54.54,0,0,0,92,52.94Z" transform="translate(2.63)"/><path class="cls-11" d="M68.46,79a1.79,1.79,0,0,0-.73,2.43c.51,1.07,2,.73,2.43.35a1.91,1.91,0,0,0,.3-2.35A1.45,1.45,0,0,0,68.46,79Z" transform="translate(2.63)"/><path class="cls-11" d="M35.86,79.36c-.67-.46-1.88-.59-2.3.17a1.87,1.87,0,0,0,.38,2.35,1.59,1.59,0,0,0,2.13-.34A1.69,1.69,0,0,0,35.86,79.36Z" transform="translate(2.63)"/><path class="cls-16" d="M32,22.73s-2.94,4-2.94,4.54,2.18,1.6,2.56,1.67,1.6,0,1.66-.71,0-3.52.26-3.77a8.07,8.07,0,0,1,.76-.64" transform="translate(2.63)"/></g><path class="cls-19" d="M85.81,24.74a.92.92,0,0,1-.3,0,1.44,1.44,0,0,1-.72-.21C76,26.87,70.05,29.67,70.11,32.44c0,1.89,1.92,2.71,5.68,2.71a64.79,64.79,0,0,0,10.28-.85l.4,4.49a99.22,99.22,0,0,1-10.77.59c-4.66,0-10.19-1-10.19-6.77,0-3,2.56-5.54,6.76-7.84-1.14-2.28-1.43-5.45-1.37-11.61l6.11.5c0,.44-.32.67-1,.76,0,.93,0,1.8,0,2.65a21.28,21.28,0,0,0,.53,5.66c2.33-1,5-2,7.83-3ZM82.08,13.16a18.23,18.23,0,0,1,3.26,4l-2.18,1.6A19.5,19.5,0,0,0,80,14.71Zm4.42-1.31a14.91,14.91,0,0,1,3.26,4L87.7,17.39a19,19,0,0,0-3.15-4.05Z" transform="translate(2.63)"/></g></g></svg>