<svg xmlns="http://www.w3.org/2000/svg" viewBox="0 0 104.12 112.68"><defs><style>.cls-1{fill:#5fd0ff;}.cls-2{fill:#fff;}.cls-3{fill:#a54423;}.cls-3,.cls-5,.cls-6,.cls-7{stroke:#221815;stroke-linecap:round;stroke-linejoin:round;}.cls-3,.cls-5{stroke-width:1.28px;}.cls-4{fill:#221815;}.cls-5{fill:#5c5b5b;}.cls-6{fill:none;stroke-width:1.08px;}.cls-7{fill:#913f1c;stroke-width:0.98px;}.cls-8{fill:#7c7a79;}.cls-9{fill:#004dc9;}</style></defs><g id="レイヤー_2" data-name="レイヤー 2"><g id="レイヤー_1-2" data-name="レイヤー 1"><rect class="cls-1" width="104.12" height="104.29" rx="11.13"/><ellipse class="cls-2" cx="76.98" cy="26.68" rx="19.75" ry="19.78"/><path class="cls-3" d="M74.49,49a1.77,1.77,0,0,1-.9,2.31c-1.53.64-3.07.25-3.32,1.15s.89,4.35,2.68,6S77,61.75,79,61.5a3.13,3.13,0,0,0,2.69-2.88,9.74,9.74,0,0,0-.07-2.76C81.71,55,84,54.71,84,54.71s.26,1.35.45,1.92a3.85,3.85,0,0,0,2.24,2c1.4.64,4,1.09,6.77,3.33s5.5,5.44,6,9.41a25.91,25.91,0,0,1-2.24,12.93c-1.79,3.65-8.44,8.51-8.44,8.51s-5.11,4.29-8.44,5.7-9.71,1.6-12.52,1.09A9.82,9.82,0,0,1,60.68,93c-1.21-3.65-1.72-6.6-2.94-6.85A14.14,14.14,0,0,1,54.42,85c-.19-.19.32-2.24.32-2.24a21.46,21.46,0,0,0,2.94,0c.7-.13,2.62-1.28,1.28-4.41s-4.16-5.89-6-6.6a2.39,2.39,0,0,0-3.07.9c-.25.45-.25,2.56-1,2.75s-2,.45-1.79-1.34a3.71,3.71,0,0,0-.76-2.56c-.32-.52-6.27-5.19-8.63-9.35s-.83-9.35,1-11.72,7.35-9.28,11.31-10.62,7.67-2.12,11.38-.39,6.2,5.44,7.22,6.66A11.43,11.43,0,0,0,74.49,49Z"/><path class="cls-4" d="M63.07,71.31c-.24.28-.51-.29-.86-.38a.92.92,0,0,0-1.19.81c-.17.9,1.11,1.92,2,2.69a16.31,16.31,0,0,1,3.24,3.63c.76,1.71,1.79,3.92.12,5.8a3.18,3.18,0,0,1-4.56.39c-.68-.73-.42-2.31.3-2.52s1.37.25,1.2.81a5.29,5.29,0,0,1-.39.94,2.24,2.24,0,0,0,1.66-.13,3,3,0,0,0,.94-3.58,6.27,6.27,0,0,0-3-3.93c-1.88-1.07-3.67-2.35-3.24-4.23a2.6,2.6,0,0,1,3.11-1.83A1.08,1.08,0,0,1,63.07,71.31Z"/><path class="cls-4" d="M80.45,64.19c.09.78,1.15.34,1.28-.09.85-.17.81.43.77.86s-1.15,1.36-2,1.62c-1.15.36-2.6-.26-3.92-1.37-1.07-.89-2.47-3.71-4.14-4.27s-2.72.13-2.94.69,0,1.49.81,1.19,1.07-.55,1.71-.34a8,8,0,0,1,2.3,2.35c.47.68,3.28,3.64,5.5,3.5a4,4,0,0,0,3.83-2.65A2.1,2.1,0,0,0,82.37,63C81.56,63,80.33,63,80.45,64.19Z"/><path class="cls-4" d="M93,91.78c.1-.17-2.74-3.07-4.34-5.06s-7-8.58-7.67-9.66-1.33-4.13-2.5-3.78c-.63.19-.76,1.53-2.94,3.46s-4.47,3.13-4.73,3.77.45,1.15,1.6,1.41,5.12,3.59,6.33,4.42,6.39,6.46,7.48,7.23,3,1.92,3,1.92A15.12,15.12,0,0,0,93,91.78Z"/><path class="cls-5" d="M79.41,87.36c-.93-.25-4.41,1.54-6.78,4s-4.41,7-3.26,9.22,9.53.45,10.55-.19a48.22,48.22,0,0,0,4.35-2.82C84.46,97.22,80.11,87.55,79.41,87.36Z"/><path class="cls-4" d="M83.56,100.17c1.15-.45.9-1.22.64-2a17.63,17.63,0,0,0-1.66-3.05,22.77,22.77,0,0,1-2-3.33,1.42,1.42,0,0,1,.62-1.49,5.47,5.47,0,0,1,2.11-.45S84.59,93.44,85,94.6s5.37,11.78,5.37,11.78L89,107.46s-2.11,1.35-2.69,1.61a6.54,6.54,0,0,1-2.62.25,17.78,17.78,0,0,1-2.17-4.67c-.39-1.41-2.94-6.28-2.88-6.72s2-1.42,2.24-.9C82,99.08,82.42,100.61,83.56,100.17Zm.64,2.62c-1.11,0-1.4,1.73-.57,2.56a1.49,1.49,0,0,0,2.3-.13C86.25,104.65,86.44,102.79,84.2,102.79Z"/><path class="cls-6" d="M80,98.89S73.76,84.16,69.54,75.33C66,68,55.3,43.39,49.69,31.67,43.55,18.86,39.59,8.75,39.59,8.75"/><path class="cls-7" d="M76.89,76.86S68.48,59.32,65.16,52.15C62,45.24,53.27,28,51.6,23S45.72,5.67,45.6,5s-2.69.77-2.69.77-5.24-3.2-5.75-2.94,1,4.61,1,4.61a1,1,0,0,0,.58.83c.57.32,2.23.38,2.94.77a17.79,17.79,0,0,0,2,.83s2.17,4.86,2.87,6.72,3.33,8.9,5.37,13.76,7.27,15,8.86,19.21,6.39,13.32,7.67,15.75,6.34,13,6.34,13c2,4,10,18.24,10.56,19.52S87.91,97,87.91,97,82.65,87,82,85.83C80.37,82.84,76.89,76.86,76.89,76.86Z"/><path class="cls-4" d="M65.16,61.37s-4.8,5.25-5.18,5.7-1.09,1-1.6.64-10.48-11.65-12-13.19S37.54,45.11,33.64,41l-6.71-7.17,3.58-4.23s3.64,2.69,5.18,3.91,6.84,6.46,9.84,9.54,9.85,9.22,11.89,11.07,6.17,5.64,6.49,5.86S65.35,61.05,65.16,61.37Z"/><path class="cls-8" d="M59.08,58s1.79,1.6,2.34,2.14A17.94,17.94,0,0,1,63,61.69c0,.1-.83.67-.92.8s-.39.19-.64-.45a6.6,6.6,0,0,0-.83-2C60.14,59.48,59.08,58.49,59.08,58Z"/><path class="cls-8" d="M56.05,55.22c-.08.19-1.82-1.34-2.5-1.69a19,19,0,0,1-4-3.46c-1.6-1.76-3.2-3.3-4.61-4.93A42.37,42.37,0,0,0,40,39.92c-1.53-1.18-2.71-1.24-3.45-2.14a16,16,0,0,0-2.94-3,8.64,8.64,0,0,1-2.52-2.43c-.13-.45.48-.67.83-.22a22.21,22.21,0,0,0,2.27,2.3l2.46,1.95a27.4,27.4,0,0,1,3.64,3.14c.86,1.06,2.65,2.37,3.9,4s3.64,3.78,4.6,4.9,3,2.66,3.9,3.55a9.43,9.43,0,0,0,2,1.6C55,53.78,56.24,54.74,56.05,55.22Z"/><path class="cls-8" d="M58,57.08c-.23,0-.13.45.09.45S58.38,57,58,57.08Z"/><path class="cls-4" d="M19.56,25.05s-2,2.05-2.26,2.3-.51.47-.64.39-.17-.81-.85-.85-2.17,1.06-3,2a13.23,13.23,0,0,0-2.13,3.72,1.74,1.74,0,0,0,.89,1.7c.64.39,1.71,1,2.47.52s2.82-2.69,3.67-3.42,1.11-1.19,1.06-1.53a4.13,4.13,0,0,0-.42-1s1.66-1.54,2.34-2.22"/><path class="cls-4" d="M24.5,30s-1.66,2.39-2.13,3-.68.76-.68.76a3,3,0,0,0-1-.59c-.34,0-1.24.85-1.62,1.53s-1,1.28-1.28,1.84-.55,1.45-.89,2-.68,1.16-.47,1.5,1,.68,2.3-.09a19.79,19.79,0,0,0,3.45-3.16A2.58,2.58,0,0,0,23,35.21a3.2,3.2,0,0,0-.09-.73,5.85,5.85,0,0,1,1-.85,15.83,15.83,0,0,0,1.79-2.39"/><path class="cls-4" d="M22.67,21.85l2.13-2.26c.6-.64,1-.73,1-1s-.89-.72-1-1.28A2.46,2.46,0,0,1,26,15.23a33.1,33.1,0,0,1,3.58-2.3,2.35,2.35,0,0,1,2.13.08c.6.43,1.15.9,1.15,1.58s-.64,1.8-1.83,3.08-1.87,2.47-2.34,2.81-1.07-.77-1.28-.68a31.86,31.86,0,0,0-2.73,3.37"/><path class="cls-4" d="M28,27s2.3-2,2.64-2.34a1.77,1.77,0,0,0,.56-1.07c0-.3-.52-.6,0-1.41a10.12,10.12,0,0,1,3.45-3.07c1.23-.51,2.6-.05,2.9.72a3.51,3.51,0,0,1-.69,3c-.72,1.07-1.45,1.49-1.57,2.09s-.69,1.41-1.49,1.15-1-.42-1.24-.25S30.34,28,29.79,28.46"/><path class="cls-8" d="M26.8,16.34c0,.52,1-.12,1.58-.51s2.43-.68,2.77-1.19-.13-1.24-1-.86S26.76,15.57,26.8,16.34Z"/><path class="cls-8" d="M35.07,20.4c0,.52,1.07.6,1.19,0s-.34-.73-.72-.65S35.07,20,35.07,20.4Z"/><path class="cls-4" d="M45,97.09c-.26,2.37-2.88,1.67-4.35,2.18s-1.41,1.15-3,2-2.82.45-3.46-1.21a3,3,0,0,1,.9-3.65c1-1,.57-3.14,2.43-3.78s2.75-.19,3.64.71a5.37,5.37,0,0,0,2.56,1.4A2.13,2.13,0,0,1,45,97.09Z"/><path class="cls-4" d="M45,88.39c-1.31-1.12-2.88,1.21-2.81,2.75a1.76,1.76,0,0,0,2.49,1.73C46,92.48,47.13,90.18,45,88.39Z"/><path class="cls-4" d="M37,85.25c-2,.79-1.15,3.46-.13,4.93a2.5,2.5,0,0,0,3.26,1c1.15-.58.77-2.5.13-4.29S38.44,84.67,37,85.25Z"/><path class="cls-4" d="M31.47,87.36c-1.82.56-1,3.4-.26,4.87s3.33,1.79,4,1,.13-2.24-.89-4S33.13,86.85,31.47,87.36Z"/><path class="cls-4" d="M28.34,97.22c.41,1.82,4,1.28,4.66.51a2.24,2.24,0,0,0-.7-3C31.28,94.08,27.64,94.08,28.34,97.22Z"/><path class="cls-4" d="M11,93c.94,1.49,3.77.57,4.86-.32s3.07-1.16,4.15-1.86a2,2,0,0,0-.76-3.52,5.91,5.91,0,0,1-3.52-1.92c-1.47-1.35-3.07.19-3.45,1.09s.26,1.85-.51,2.88S10,91.46,11,93Z"/><path class="cls-4" d="M9.48,89.41c-.63,1.47-2.72,1.41-3.9-.19-.89-1.22-.7-2.88,1.15-3s2.88,1,2.94,1.66A1.93,1.93,0,0,1,9.48,89.41Z"/><path class="cls-4" d="M11.4,85.19c-1,.61-3.2-.13-3.9-.77s-1.92-2.82-1.66-4.1,2.62-1.47,3.77-1S12.87,84.29,11.4,85.19Z"/><path class="cls-4" d="M13.51,77.31c-1.61.62-1.15,2.63-.83,3.84S14.6,84,16.07,83.46s1.59-2.44,1.15-3.78S15.68,76.48,13.51,77.31Z"/><path class="cls-4" d="M19.07,86.08c-1.3-.65-.83-4.42,1-4.86a1.93,1.93,0,0,1,2.62,1.53C23,84.16,21.12,87.11,19.07,86.08Z"/><path class="cls-4" d="M17.06,61.4c-.9-1.21.06-2.88,1-3.45s2.17-.07,2.91-.8,2.07-2.34,3.7-1.86,1.19,1.6,1.6,2.78,1.54,2,1.73,2.82-.35,2.85-3.13,2.4-2.08-1.41-3.3-1.57S18.37,63.16,17.06,61.4Z"/><path class="cls-4" d="M18.81,56.41a2.81,2.81,0,0,1-3.89-.48,2.58,2.58,0,0,1,.95-3.59,2.1,2.1,0,0,1,2.94.93C19.29,54.49,19.87,55.58,18.81,56.41Z"/><path class="cls-4" d="M22.55,54.49c-1.26.46-3.29-1.44-3.16-3.94a3.08,3.08,0,0,1,3.58-3c1.21.23,1.92,2.5,1.82,3.65A4,4,0,0,1,22.55,54.49Z"/><path class="cls-4" d="M27.32,55.86c-1.1-.72-1-1.88-.84-3.74A2.63,2.63,0,0,1,30.13,50c1.28.73,2.24,2,1.28,3.39S29,57,27.32,55.86Z"/><path class="cls-4" d="M31.89,56.63c-1.37-.55-3.17,1.16-3.39,1.89a2.1,2.1,0,0,0,.54,2.4,2.36,2.36,0,0,0,3.17-.83C33.16,58.87,33.16,57.15,31.89,56.63Z"/><path class="cls-7" d="M93.34,107.34s-2.81-4.8-3.64-6.6-2.43-5.63-2.94-5.44a8,8,0,0,0-2.37,1.47c-.19.39,1.22,3.2,1.73,4.68s4.28,8.19,4.28,8.19"/><path class="cls-4" d="M89.53,109.51c.08.34.47,1.37.68,2s.56,1.28,1.07,1.19a23.89,23.89,0,0,0,4.64-2.22c.3-.38.09-1.36-.42-2.3s-1.16-2-2.09-1.45-2,1.45-2.6,1.66S89.4,109,89.53,109.51Z"/><path class="cls-8" d="M92.85,108.12c-.23-.18-1,.59-1,.8s.84,1,1,1.28.71.81.87.59A6.39,6.39,0,0,0,92.85,108.12Z"/><path class="cls-4" d="M84.14,97.61c-.71.11-2-2-2.49-3S80,91.35,80.28,90.9a10,10,0,0,1,2.26-1.36c.58-.32,1.66-1,1.92-1a42.07,42.07,0,0,1,2.3,4.1c.45.76,1.09,2.24.77,2.56A23.87,23.87,0,0,1,84.14,97.61Z"/><path class="cls-8" d="M83.79,90.21a.29.29,0,0,0-.48.23c0,.21,2.08,4.45,2.2,4.7s.62-.1.77-.32S84.07,90.43,83.79,90.21Z"/><path class="cls-3" d="M19.6,17.37s6.25,6.36,7,7.06,3.45,2.56,3.9,3S31.85,29,31.85,29,27.19,34,26.93,34.42s-1.34-1.28-1.79-2a51.68,51.68,0,0,0-4.66-5.31c-1.28-1.15-4.93-5.31-4.93-5.31"/><path class="cls-3" d="M17.66,9.9l1.67-1.35c.38-.32.83-.51,1.27.07a16.15,16.15,0,0,0,1.82,1.74c.26.19-1.5,1.91-1.82,2.55"/><path class="cls-3" d="M7.37,19.31A14.37,14.37,0,0,1,5.9,20.85a1.09,1.09,0,0,0-.32,1.47c.39.51,1.09,1.92,1.47,1.85a3.63,3.63,0,0,0,1.73-1c.19-.38,1.15-1.86,1.15-1.86"/><path class="cls-3" d="M12.61,9.64A14.21,14.21,0,0,1,15.3,8.49c.64-.06,1-.83,2.24.7a20.25,20.25,0,0,0,3,3.14c.64.51,1.79,1.35,1.85,1.92s-1.34,2.31-1.34,2.31"/><path class="cls-3" d="M8,13.93A13,13,0,0,0,6,16.56a2.55,2.55,0,0,0,.51,2.49c.77.9,3.77,3.78,4.28,4.29s1.41.07,1.79-.06,2.18-1.22,2.18-1.22"/><path class="cls-3" d="M18,20.08a31.56,31.56,0,0,1-1.08,3.07c-.32.58-.64,1.6-1.67.77a62.88,62.88,0,0,1-5-6.08,42.88,42.88,0,0,0-4.1-4.74c-.63-.51-.06-1.09.52-1.34a19.27,19.27,0,0,1,2.3-.65s.38-1,.7-1.66.64-1.34,1-1.22a58.45,58.45,0,0,1,5.12,4.1C17,13.48,19.52,15.4,20,15.92s2,1.4,2,1.66-1.27,1.09-2.23,1.6S18,20.08,18,20.08Z"/><path class="cls-3" d="M8.91,11.11s2.3,2.89,3.58,4.17,4.22,3.39,5.49,4.8"/><path class="cls-9" d="M79.38,22.39h11.3v3.12H64.07V22.39h11V21.6H67.45V18.66h7.62v-.82H65.73V14.72h9.34v-2l5.22.26c0,.35-.3.55-.91.64v1.08h9.41v3.12H79.38v.82h7.86V21.6H79.38Zm6.93,4V36.76c0,3.39-1.6,3.82-7.42,3.82a14.56,14.56,0,0,0-1.25-3.35c.78.06,1.89.09,2.67.09.47,0,.85,0,1,0,.7,0,.7-.2.7-.9H72.57v4.14H68.35V26.35Zm-4.31,3H72.57v.82H82ZM72.57,33.7H82v-.87H72.57Z"/></g></g></svg>