<svg xmlns="http://www.w3.org/2000/svg" xmlns:xlink="http://www.w3.org/1999/xlink" viewBox="0 0 108.28 115.06"><defs><style>.cls-1,.cls-11,.cls-13,.cls-14,.cls-16,.cls-17,.cls-18,.cls-19,.cls-22,.cls-27{fill:none;}.cls-2{clip-path:url(#clip-path);}.cls-3{fill:#ff8f44;}.cls-10,.cls-15,.cls-4{fill:#f6c67c;}.cls-24,.cls-28,.cls-5{fill:#fff;}.cls-10,.cls-11,.cls-13,.cls-14,.cls-15,.cls-16,.cls-17,.cls-18,.cls-19,.cls-20,.cls-21,.cls-22,.cls-23,.cls-24,.cls-25,.cls-26,.cls-27,.cls-5,.cls-6,.cls-7,.cls-8,.cls-9{stroke:#221815;stroke-linecap:round;stroke-linejoin:round;}.cls-11,.cls-21,.cls-5,.cls-6,.cls-7,.cls-8{stroke-width:1.18px;}.cls-6{fill:#f29700;}.cls-7{fill:#00abeb;}.cls-8{fill:#6a696a;}.cls-20,.cls-21,.cls-26,.cls-9{fill:#e62510;}.cls-14,.cls-9{stroke-width:1.37px;}.cls-10,.cls-26,.cls-27{stroke-width:1.28px;}.cls-12{fill:#221815;}.cls-13{stroke-width:0.98px;}.cls-15,.cls-16,.cls-23,.cls-24,.cls-25{stroke-width:0.79px;}.cls-17,.cls-20{stroke-width:1.08px;}.cls-18{stroke-width:0.69px;}.cls-19{stroke-width:1.57px;}.cls-22{stroke-width:1.77px;}.cls-23{fill:#e52e8a;}.cls-25{fill:#00aedf;}.cls-29{fill:#f40000;}</style><clipPath id="clip-path" transform="translate(2.16)"><path class="cls-1" d="M104.12,93.15A11.16,11.16,0,0,1,93,104.29H11.12A11.17,11.17,0,0,1,0,93.15v-82A11.16,11.16,0,0,1,11.12,0H93a11.16,11.16,0,0,1,11.12,11.14Z"/></clipPath></defs><g id="レイヤー_2" data-name="レイヤー 2"><g id="レイヤー_1-2" data-name="レイヤー 1"><g class="cls-2"><path class="cls-3" d="M104.12,93.15A11.16,11.16,0,0,1,93,104.29H11.12A11.17,11.17,0,0,1,0,93.15v-82A11.16,11.16,0,0,1,11.12,0H93a11.16,11.16,0,0,1,11.12,11.14Z" transform="translate(2.16)"/><path class="cls-4" d="M46.09,24.46c.06.37,3.38,1.34,4.34,1.11s.7-2.14.7-2.14,4.53.13,4.48-.32.32-2.09-.32-1.85-6.39.51-6.65.64S46,23.81,46.09,24.46Z" transform="translate(2.16)"/><path class="cls-5" d="M94.71,89c0-.51.25-10,.25-12.12s-.17-9.73-.17-9.73L71.52,67s-.08,6.14,0,8.7,1,7.86,1,8.88.08,5.29.08,5.29" transform="translate(2.16)"/><path class="cls-5" d="M71.18,89.8s7-.26,8.87-.26,5.88-.17,10.56-.25a51.8,51.8,0,0,0,6.48-.39l1.66-.08,1.79.68,0,6.91-21.82.69L68.24,93.3" transform="translate(2.16)"/><path class="cls-4" d="M-1,24.33a81.79,81.79,0,0,1,12-1.54c5.24-.13,20.07-.13,22.11-.13a39.7,39.7,0,0,1,7,.77c1.67.39,10.1,2.05,10.87,2.18s1.66.45,1.66,1.6a14.13,14.13,0,0,0,.07,2.18,6.44,6.44,0,0,0,1.85.64.79.79,0,0,1,.7.7c.07.45.13,1.41-.06,1.47s-1.66.19-1.66.19a3.22,3.22,0,0,0-.45,2,2.51,2.51,0,0,0,.38,1.15s1.73-.06,1.86.13a6.43,6.43,0,0,1-.13,1.86c-.06.32-.7.44-1,.44s-1.09.07-1.09.07a7.11,7.11,0,0,0-.38,1.79A13.51,13.51,0,0,0,53.05,43a8.52,8.52,0,0,0,1.79,0c.71-.07,2.43-.19,2.88-.19s1.34-.07,1.34.32.19,1.28-.26,1.72-1.47.2-2.23.45a6.38,6.38,0,0,0-2.3,1c-.51.51-.9.77-1.09,1.34s-.51,3.27-.58,3.84S52.41,53,52,53.27c-.26.14-1.54.66-2.62,1.18-.83.41-1.54.86-1.54.86-3.9,2.18-7.35,4.61-15.91,6.66s-7.69,2.18-7.69,2.18l-.3,2.3-3.07.71-.07-2.37s-10.22,1-14.19,1.09a57.62,57.62,0,0,1-7.41-.39" transform="translate(2.16)"/><polyline class="cls-4" points="17.09 64.41 15.56 67.61 17.77 68.25 18.46 64.75"/><path class="cls-6" d="M100.93,107.3l-.77-10.25s-12,3.59-21.22-.51S61,80.92,56.44,78.36,45.19,73.5,37.78,76.57,25,87.84,23,89.12,14,91.93,14,91.93l-.51,22.54" transform="translate(2.16)"/><path class="cls-7" d="M75.19,84.59s5.2.17,6.9.17,7.76-.06,8.87-.06a34.77,34.77,0,0,1-.26-4.8,92,92,0,0,0,.51-10s-4.52.09-6.65.17-8.35.09-9.37,0" transform="translate(2.16)"/><path class="cls-8" d="M75.1,46.86s-2-6.06,3.07-7.51,9.46-.51,11,1.11a6.48,6.48,0,0,1,1.36,6.32" transform="translate(2.16)"/><path class="cls-9" d="M24.57,91.85a31,31,0,0,0,1.19,5.72c.68,1.53.25,9.22.25,9.22l38.19-1s-.6-6.83-.86-8.71a54.91,54.91,0,0,1,.26-7.34l7,5.3c.08,6,1.19,18.95,1.19,18.95L23.2,112.68l-4.6-.26.77-21" transform="translate(2.16)"/><path class="cls-10" d="M-1,24.33a81.79,81.79,0,0,1,12-1.54c5.24-.13,20.07-.13,22.11-.13a39.7,39.7,0,0,1,7,.77c1.67.39,10.1,2.05,10.87,2.18s1.66.45,1.66,1.6a14.13,14.13,0,0,0,.07,2.18,6.44,6.44,0,0,0,1.85.64.79.79,0,0,1,.7.7c.07.45.13,1.41-.06,1.47s-1.66.19-1.66.19a3.22,3.22,0,0,0-.45,2,2.51,2.51,0,0,0,.38,1.15s1.73-.06,1.86.13a6.43,6.43,0,0,1-.13,1.86c-.06.32-.7.44-1,.44s-1.09.07-1.09.07a7.11,7.11,0,0,0-.38,1.79A13.51,13.51,0,0,0,53.05,43a8.52,8.52,0,0,0,1.79,0c.71-.07,2.43-.19,2.88-.19s1.34-.07,1.34.32.19,1.28-.26,1.72-1.47.2-2.23.45a6.38,6.38,0,0,0-2.3,1c-.51.51-.9.77-1.09,1.34s-.51,3.27-.58,3.84S52.41,53,52,53.27c-.26.14-1.54.66-2.62,1.18-.83.41-1.54.86-1.54.86" transform="translate(2.16)"/><path class="cls-11" d="M15.34,52.11a30.82,30.82,0,0,0,4.28-.19c1.86-.26,4.16-.64,6.65-.83a69.23,69.23,0,0,1,9.2.45c2.11.19,5.63.51,7.48.57A33.76,33.76,0,0,1,50.5,54" transform="translate(2.16)"/><path class="cls-12" d="M44.72,24.16a17.05,17.05,0,0,0,2.9-2.39c.38-.43.94-.56,2.17-.51S52.35,21,53,21a16.83,16.83,0,0,1,2.9,0c.38.17.25,1.45.25,2.13s-.81.43-1.53.43-1.7.3-2.22.26-.85.25-.81.47,0,1.53,0,1.53l-1.19-.25a7.12,7.12,0,0,1,.21-2.18,5.48,5.48,0,0,1,2-.38l2.47-.3c.26-.05-.08-.81-.08-.81h-.81c-.81,0-1.37.25-2.65.29s-1.4-.08-2.17-.08-.68.47-1,.94a19.05,19.05,0,0,1-1.88,1.75" transform="translate(2.16)"/><path class="cls-13" d="M22.22,22.92A18.07,18.07,0,0,0,21.54,26a35.3,35.3,0,0,0-.17,4.23,15.31,15.31,0,0,0,.38,2" transform="translate(2.16)"/><path class="cls-14" d="M20.13,1.54a24.5,24.5,0,0,0,.2,3.26,12.15,12.15,0,0,1-.13,3.91c-.26,1.92-.51,4.86-.58,6.85s-.19,6.08-.51,6.85" transform="translate(2.16)"/><path class="cls-14" d="M35.79,6.21s-.12,5.06-.12,6.79-.07,3.58-.07,4.93.19,3.65.19,5" transform="translate(2.16)"/><path class="cls-14" d="M4.6,6.4s-.19,1.92-.19,3.33.19,6.47.13,7.49-.45,6.34-.45,6.34" transform="translate(2.16)"/><path class="cls-15" d="M5.18,9S7,8.52,8.37,8.2s5.5-1.09,5.5-1.09v2.3s-5,0-6-.06S5.18,9,5.18,9Z" transform="translate(2.16)"/><path class="cls-15" d="M4.35,9.09A11.86,11.86,0,0,0,.26,8.45c-1,1.47-.77,4.23-.77,4.23s4.15-2.41,4.92-3.12" transform="translate(2.16)"/><path class="cls-15" d="M4.54,17.22a53.43,53.43,0,0,1,5.94-.89c1.47,0,3.9-.13,3.9-.13a6.81,6.81,0,0,1-.19,2.88,51.23,51.23,0,0,1-6.58-1.22A25.07,25.07,0,0,1,4.54,17.22Z" transform="translate(2.16)"/><path class="cls-15" d="M4.54,17.22a5,5,0,0,0-1.92-.51c-1.09-.06-2.94-.13-2.94-.13s-.13,2.11-.13,2.88a9.7,9.7,0,0,0,3.39-1A19.4,19.4,0,0,0,4.54,17.22Z" transform="translate(2.16)"/><path class="cls-15" d="M19.37,13.51a16.1,16.1,0,0,1-2.5-.77,19.12,19.12,0,0,0-4.09-1.28,6.9,6.9,0,0,0-1.66-.13s.26,2.76.26,3.08a20.51,20.51,0,0,0,3.45-.07C15.72,14.28,19.37,13.51,19.37,13.51Z" transform="translate(2.16)"/><path class="cls-15" d="M19.81,12.87s1.86-.26,2.82-.26a34.08,34.08,0,0,0,3.7-.6c1.35-.19,3.71-.36,3.71-.36s-.89,2.18-1.15,2.56A20.09,20.09,0,0,1,24.67,14,29.19,29.19,0,0,0,20,13.79" transform="translate(2.16)"/><path class="cls-15" d="M20.39,3.33S18,2.88,16.87,2.56s-4.66-.7-4.66-.7.19,1.92.25,3.13C14.32,5.06,20.39,3.33,20.39,3.33Z" transform="translate(2.16)"/><path class="cls-15" d="M19.88,3.52s1.66-.32,4-.64l5.88-.83s0,2.26-.08,2.9c-2,.13-7.65-1-9-1.11" transform="translate(2.16)"/><path class="cls-15" d="M36,8.77s-2.24-.64-3.33-1a37.1,37.1,0,0,0-3.83-.9s.32,2.43.32,2.82a17.66,17.66,0,0,0,4.22-.19c.51-.13,2-.26,2-.26" transform="translate(2.16)"/><path class="cls-15" d="M36.05,9.41a36.69,36.69,0,0,0,4.35,1.15c1.85.32,4.47.64,4.47.64s.06-1.47.06-2.17S45,7.24,45,7.24s-2.62.55-3.71.81-4,1.11-5.82.72" transform="translate(2.16)"/><path class="cls-15" d="M35.22,17.35s1.85-.58,2.81-.9A24.31,24.31,0,0,1,46,14.92c.06,1.41.19,3.71.19,3.71s-4-.38-5.5-.58-4.54-.83-4.54-.83" transform="translate(2.16)"/><path class="cls-15" d="M35.67,16.9a10.6,10.6,0,0,0-3.26-.51c-2.11-.06-5,0-5,0s.12,2.05.32,3.14c3.19-.84,4.81-1.38,5.94-1.6a19,19,0,0,0,2.49-.71" transform="translate(2.16)"/><path class="cls-13" d="M53.82,30a7.88,7.88,0,0,1-2.3.38c-1.22,0-3.65-.64-5.37-.77s-3.77-.19-4.73-.7-3.13,0-4.28-.13-2.82.06-3.52-.32a12.41,12.41,0,0,0-5.24-.64" transform="translate(2.16)"/><path class="cls-16" d="M49.09,25.16s.26,3.68,1,5" transform="translate(2.16)"/><path class="cls-16" d="M46.6,25s.06,2.58.06,3.09A8.25,8.25,0,0,0,47,29.71" transform="translate(2.16)"/><path class="cls-11" d="M43.83,24.39A24.63,24.63,0,0,0,44,29.26" transform="translate(2.16)"/><path class="cls-16" d="M42.19,24a14.43,14.43,0,0,0-.55,4.93" transform="translate(2.16)"/><path class="cls-16" d="M39.49,23.3s-.44,2.12-.5,3.08a9.87,9.87,0,0,0,.19,2.17" transform="translate(2.16)"/><path class="cls-16" d="M36.56,22.86a10.89,10.89,0,0,0-1,3,8.19,8.19,0,0,0,.71,2.89" transform="translate(2.16)"/><path class="cls-16" d="M33.46,22.73a10.79,10.79,0,0,0-.54,2.75c0,1.15.13,2.82.13,2.82" transform="translate(2.16)"/><path class="cls-16" d="M31,22.66A14.11,14.11,0,0,0,30.87,28" transform="translate(2.16)"/><path class="cls-16" d="M29,22.79A36.05,36.05,0,0,0,28.12,27a17.63,17.63,0,0,0-.06,3c.06.83.19,1.92.19,1.92" transform="translate(2.16)"/><path class="cls-16" d="M32,28.11S29.53,30.6,29.08,32" transform="translate(2.16)"/><path class="cls-16" d="M34.2,28.87a13,13,0,0,0-3.07,3.72" transform="translate(2.16)"/><path class="cls-16" d="M37.09,28.84s-2.64,2.21-3.34,4.07" transform="translate(2.16)"/><path class="cls-16" d="M39.62,28.68a15.43,15.43,0,0,0-.57,4.55" transform="translate(2.16)"/><path class="cls-16" d="M28.23,25.48a11.48,11.48,0,0,0-3.41-.3,24.63,24.63,0,0,1-3.28.09" transform="translate(2.16)"/><path class="cls-16" d="M28.1,27.61a9.63,9.63,0,0,0-2.68-.34c-.94.13-3,.22-3.62.22" transform="translate(2.16)"/><path class="cls-16" d="M28,29.32s-1.83.13-3.28.3-3.24.17-3.24.17" transform="translate(2.16)"/><path class="cls-16" d="M19.94,25.22s-4.09.07-6.71.39-7.86.64-9.2.83" transform="translate(2.16)"/><path class="cls-16" d="M8.25,28.17s5.81-.1,7.6-.3a30.69,30.69,0,0,1,5.31-.15" transform="translate(2.16)"/><path class="cls-16" d="M35.35,30.86a13.2,13.2,0,0,1,1.59,1.66" transform="translate(2.16)"/><path class="cls-16" d="M36.31,29.58l2.55,2.05" transform="translate(2.16)"/><path class="cls-16" d="M44.55,29.64s-2.24,3-2.56,3.65" transform="translate(2.16)"/><path class="cls-16" d="M47,29.71s-2.49,3-2.68,3.84" transform="translate(2.16)"/><path class="cls-16" d="M49.54,30.15s-2.24,2.76-2.75,3.53" transform="translate(2.16)"/><path class="cls-16" d="M51,30.41a24.28,24.28,0,0,1-2.11,2.82" transform="translate(2.16)"/><path class="cls-16" d="M57.08,30a13.8,13.8,0,0,1-1.85.06" transform="translate(2.16)"/><path class="cls-16" d="M57.85,35.15a11.54,11.54,0,0,0-2.43.51" transform="translate(2.16)"/><path class="cls-11" d="M53.18,34.38s-3.07,0-3.77-.13a25.78,25.78,0,0,0-3.07-.64c-.7,0-2.43.45-3.2.19a12.06,12.06,0,0,0-2.55-.64c-.83-.06-3.45,0-4.92-.19s-3.07.28-4.41,0-2.43-1.11-4.86-1.11c-1.86,0-4.92.57-6.78.64s-4,.26-4,.26S8.76,30.47,5.31,30.35a22.82,22.82,0,0,0-4.54,2" transform="translate(2.16)"/><path class="cls-13" d="M31.26,32.93s0,3.43-.2,5-.19,4.8-.19,6" transform="translate(2.16)"/><path class="cls-11" d="M16,32.65a11.88,11.88,0,0,0-1,3.46c-.12,1.66-.06,8-.06,8" transform="translate(2.16)"/><path class="cls-13" d="M37.26,33.23a49.49,49.49,0,0,1-.38,5.5,38.1,38.1,0,0,0-.57,4.87" transform="translate(2.16)"/><path class="cls-17" d="M40.59,33.16V39c0,1.15,0,4-.64,4.93" transform="translate(2.16)"/><path class="cls-13" d="M45,33.68s.19,5.37.06,6.65a40.41,40.41,0,0,0-.13,5" transform="translate(2.16)"/><path class="cls-11" d="M53.76,46.29s-2.88-.45-3.78-.51a14.45,14.45,0,0,0-3.32-.2c-.83.2-1.66.64-2.62-.12s-2.43-.52-3.45-.84a7.71,7.71,0,0,0-3-.7,29.69,29.69,0,0,1-4,.06,32.27,32.27,0,0,0-5.5.07c-1.73.12-2.49.12-5,.12s-4.41.07-5.69.2-4.47-.26-6.07-.07S6,45,4.73,45.13.89,46.22-.06,46.42" transform="translate(2.16)"/><path class="cls-11" d="M33.05,43.92a58.39,58.39,0,0,0,.12,7.23" transform="translate(2.16)"/><path class="cls-13" d="M45,46.48s-.13,2.3-.13,3.2a11.77,11.77,0,0,0,.58,2.63" transform="translate(2.16)"/><path class="cls-13" d="M37.14,44.11s-.58,3.39-.64,4.1-.07,3.26-.07,3.26" transform="translate(2.16)"/><path class="cls-17" d="M39.89,44.75s.19,2.82.19,3.59.44,3.26.44,3.26" transform="translate(2.16)"/><path class="cls-11" d="M6.58,52.11a13.57,13.57,0,0,1-3,.67c-1.47.13-4.47.68-4.47.68" transform="translate(2.16)"/><path class="cls-16" d="M39.05,33.23a32.28,32.28,0,0,1-.38,4,21.49,21.49,0,0,0,0,4.16" transform="translate(2.16)"/><path class="cls-16" d="M52,36.3a13.14,13.14,0,0,0-3.39-.64c-.9.13-3.33.26-3.33.26" transform="translate(2.16)"/><path class="cls-18" d="M52.73,38.67a7.13,7.13,0,0,0-3.26-1c-1.34.13-4.34.19-4.34.19" transform="translate(2.16)"/><path class="cls-13" d="M52.67,40.91a10.69,10.69,0,0,0-2.3-.64,21.17,21.17,0,0,0-5.31.06" transform="translate(2.16)"/><path class="cls-18" d="M45.06,42.57s2.62.07,3.71.07a6.77,6.77,0,0,1,2.75.25,2.53,2.53,0,0,0,1.53.07" transform="translate(2.16)"/><line class="cls-16" x1="55.47" y1="44.81" x2="55.47" y2="46.22"/><path class="cls-18" d="M46.66,45.58a11.37,11.37,0,0,1,.7,3.65,24.83,24.83,0,0,0,.07,3.46" transform="translate(2.16)"/><path class="cls-18" d="M49,45.9a13.14,13.14,0,0,1,.39,2.69c-.07.83-.39,3.72-.32,4.61" transform="translate(2.16)"/><path class="cls-18" d="M52.67,48.78a6,6,0,0,0-3.32-.19" transform="translate(2.16)"/><path class="cls-18" d="M52.29,51a5.67,5.67,0,0,0-2.94-.26" transform="translate(2.16)"/><path class="cls-18" d="M35.67,33a21.34,21.34,0,0,0-.32,4.23" transform="translate(2.16)"/><path class="cls-18" d="M33.17,33.23s0,3.45.13,5.05a34.72,34.72,0,0,1-.06,4.17" transform="translate(2.16)"/><path class="cls-18" d="M30.17,35.66a15.24,15.24,0,0,0-5.11-.38c-2.5.32-4.16,0-6,.19s-4,.64-4,.64" transform="translate(2.16)"/><path class="cls-18" d="M15.28,38.16a25.23,25.23,0,0,1,4.22-.64c1.08.06,4.47.06,5.88,0a24.37,24.37,0,0,1,5.68.38" transform="translate(2.16)"/><path class="cls-18" d="M27.05,45.58A32.93,32.93,0,0,0,26.91,51" transform="translate(2.16)"/><path class="cls-18" d="M29.72,44.37a10.06,10.06,0,0,0-.51,2.81c0,1.35-.06,3.46-.06,3.46" transform="translate(2.16)"/><path class="cls-18" d="M30.87,43.92a18.68,18.68,0,0,1,.32,3.71c-.06,1.73.07,3.39.07,3.39" transform="translate(2.16)"/><path class="cls-18" d="M25.89,44.43a12.72,12.72,0,0,0-.71,3.27,21.67,21.67,0,0,0,.32,3.07" transform="translate(2.16)"/><path class="cls-18" d="M23.39,45.46a13.17,13.17,0,0,0-.57,5.82" transform="translate(2.16)"/><path class="cls-18" d="M20.9,44.49a6.89,6.89,0,0,0-.83,3.27,15.71,15.71,0,0,0,.58,3.46" transform="translate(2.16)"/><path class="cls-18" d="M18,47.06a36.4,36.4,0,0,1-.13,5" transform="translate(2.16)"/><path class="cls-18" d="M15.85,47.89a19.11,19.11,0,0,0,0,4.1" transform="translate(2.16)"/><path class="cls-18" d="M19.56,54.42a29.54,29.54,0,0,0,3.13-.07c1.54-.12,3.84-.57,5.5-.76a55.36,55.36,0,0,0,6.13-1.41" transform="translate(2.16)"/><path class="cls-18" d="M35.67,54.16s4.53-.45,5.94-1.09" transform="translate(2.16)"/><line class="cls-18" x1="47.41" y1="53.78" x2="47.6" y2="52.82"/><path class="cls-18" d="M35.86,56.79a28.94,28.94,0,0,0,4.6-.9,11.41,11.41,0,0,1,2.94-.58" transform="translate(2.16)"/><path class="cls-18" d="M36.82,58.77a30.39,30.39,0,0,0,4.54-1" transform="translate(2.16)"/><path class="cls-13" d="M37,60.41a8.64,8.64,0,0,0,3.39-.9" transform="translate(2.16)"/><path class="cls-18" d="M15.28,44.62a3.07,3.07,0,0,0,.12,1.22" transform="translate(2.16)"/><path class="cls-18" d="M11.25,44.3a21.51,21.51,0,0,0,.19,4.16" transform="translate(2.16)"/><path class="cls-18" d="M7.86,44.75s-.13,3.39-.13,6" transform="translate(2.16)"/><path class="cls-18" d="M5.31,45.2a27.94,27.94,0,0,0-.45,7.23" transform="translate(2.16)"/><path class="cls-18" d="M2.36,45.71s0,6,.64,7.11" transform="translate(2.16)"/><path class="cls-18" d="M2.17,31.56a16,16,0,0,1,.26-7.49" transform="translate(2.16)"/><path class="cls-18" d="M3.54,23.82s.1,1.66.1,3.52a31.24,31.24,0,0,0,.2,3.45" transform="translate(2.16)"/><path class="cls-18" d="M5.31,30.35s.12,2.49.06,4.09a28.48,28.48,0,0,0,.38,5.83" transform="translate(2.16)"/><path class="cls-18" d="M.89,34.76s1.41-.57,2.24-1a13,13,0,0,1,2.49-.83s2.63.64,3.58.77,3.65.38,4,.44,1,.77,1,.77" transform="translate(2.16)"/><path class="cls-18" d="M1.85,36.24A16.47,16.47,0,0,1,5.24,35a14.28,14.28,0,0,1,4.35.64c1.34.44,5.43,2,5.43,2" transform="translate(2.16)"/><path class="cls-18" d="M1,39.37s2.81-1.09,3.32-1.21" transform="translate(2.16)"/><path class="cls-18" d="M5.88,37.39S9,38,10,38.22a32.33,32.33,0,0,1,5.11,1.35" transform="translate(2.16)"/><path class="cls-12" d="M14.83,40.72a7.07,7.07,0,0,1-3.2.19c-1.66-.32-5.05-1.47-5.81-1.28S3.9,39.57,3.58,40a4.78,4.78,0,0,1-1.6.83c-.45.19-1.09.77-1.28.77s-1,.06-1,.06L-.45,43s5.24-.45,6.84-.38,4.16-.51,5.5-.45,3.07.32,3.07.32Z" transform="translate(2.16)"/><path class="cls-12" d="M24.48,39.86c-.46,0-.47,1.37-.3,1.88s.81.86,1.15.51S25.33,39.78,24.48,39.86Z" transform="translate(2.16)"/><path class="cls-12" d="M26.7,40c-.41,0-.39.72-.47,1.15s.13,1.41.72,1.37.81-.6.73-1.15S27.34,39.91,26.7,40Z" transform="translate(2.16)"/><path class="cls-12" d="M29.13,40c-.5-.24-.6.64-.69,1.07s-.17,1.45.52,1.45.68-1,.68-1.49A1.05,1.05,0,0,0,29.13,40Z" transform="translate(2.16)"/><path class="cls-12" d="M21.86,56c-.25.21.89,1.73,2.11,1.79s4-1,5.62-1a10.77,10.77,0,0,0,4.67-1.22c.7-.51.45-1.66-1-1.41s-2.75,1.09-4.09,1.15-3.71.64-4.41.58S22.37,55.57,21.86,56Z" transform="translate(2.16)"/><path class="cls-12" d="M27.61,56.59s1.41,2.25,1.66,2.76a42.55,42.55,0,0,0,2.56,4.41c.64.77-.32,1.16-.83,1.09s-1.09.39-1.73.58-1.47.77-1.85.38-.57-4.29-.77-5.57A22.77,22.77,0,0,0,25.76,57" transform="translate(2.16)"/><path class="cls-4" d="M28,60.05a1.71,1.71,0,0,0-.2,1.15c.07.84.39,3,.45,3.27s1-.39,1.15-.39a5.26,5.26,0,0,0,.71-.12s-.71-1.86-1-2.56A4.64,4.64,0,0,0,28,60.05Z" transform="translate(2.16)"/><path class="cls-12" d="M33.11,55.63a13.74,13.74,0,0,1,1,1.54,20.21,20.21,0,0,0,1.28,2.88c.51.77,2.11,2.69,2.17,3.2s-.64.9-1.21,1-2.37.77-3.07.51-.71-1.28-.71-1.79a23.58,23.58,0,0,0-.44-4.16c-.32-1.22-.51-2.56-.51-2.56" transform="translate(2.16)"/><path class="cls-4" d="M33.62,59.22c-.37.07-.45.77-.19,1.73a16.27,16.27,0,0,1,.25,2.94s1.09-.25,1.54-.32.83-.19.57-.83a15.57,15.57,0,0,0-1.27-1.86C34.39,60.63,34.26,59.09,33.62,59.22Z" transform="translate(2.16)"/><path class="cls-18" d="M3,56.08A7.69,7.69,0,0,1-.45,56" transform="translate(2.16)"/><path class="cls-18" d="M3.07,58.58a25.14,25.14,0,0,1-3.45.7" transform="translate(2.16)"/><path class="cls-18" d="M1.66,61.78a4.89,4.89,0,0,1-2-.06" transform="translate(2.16)"/><path class="cls-18" d="M1.92,64.4a8.19,8.19,0,0,1-2.3.13" transform="translate(2.16)"/><path class="cls-12" d="M23.39,59.28c-.38.08-.76,1.86-.76,2.12a14.66,14.66,0,0,1,.7,2.62c.06,1.09.32,2.37-.38,2.24s-1.54.45-1.67-.13a4.83,4.83,0,0,1,.45-2.37c.32-.7.51-2.17.07-2.36s-.52,1.28-.77,1.66a7.84,7.84,0,0,0-.58,2.63c0,.64.13,1.47.39,1.47a11,11,0,0,1,2.23,0c.37.15.55.51,1,.4s.63-.77.63-1.14-.37-1.58-.48-2.24a16.4,16.4,0,0,1-.3-2.84C24,60.39,23.79,59.21,23.39,59.28Z" transform="translate(2.16)"/><path class="cls-12" d="M14.76,65.18c-.22-.22-.88.4-1.21.85a4.63,4.63,0,0,0-.7,1.58c0,.22.4.59,1,.73a15.92,15.92,0,0,0,2.09.3c.44,0,.52-.37.55-.92s.22-1.62.26-1.92-.55-.84-1-.4a1.73,1.73,0,0,0-.26,1.47c0,.3.07,1-.33,1.07s-1.4-.3-1.25-.81A2.44,2.44,0,0,1,14.5,66,1,1,0,0,0,14.76,65.18Z" transform="translate(2.16)"/><path class="cls-14" d="M8.69,65.69S5.94,65.94,4,66a21.37,21.37,0,0,1-4.34-.45" transform="translate(2.16)"/><path class="cls-16" d="M17.29,59.28a4.24,4.24,0,0,0,2.14.07,1.89,1.89,0,0,0,.8-2.18c-.16-.93-1-1.34-1.5-.64a1.67,1.67,0,0,0,.45,2.27,2,2,0,0,0,2.87.07" transform="translate(2.16)"/><path class="cls-12" d="M17.29,61.33c.35.35.7.26,1,.45a2.77,2.77,0,0,1,.57,1.6c0,.61-.16,1,.2,1.34s.76.71.51,1-.93.32-1.66,0-.68-1.41-1.06-1.57-.86.06-1.21-.1-.26-.48-1.09-.28a7.11,7.11,0,0,1-2.75.38c-1-.16-1.88-.35-2.75-.48a6.9,6.9,0,0,1-1.79-.54A1.13,1.13,0,0,0,6,63.41a3,3,0,0,1-1.95.51c-.73-.06-1.31-.41-1.28-.7s1.06-.48,1.34-.8a1.55,1.55,0,0,0,.52-.9,3.51,3.51,0,0,1-1.83-1.21,5.33,5.33,0,0,1-.7-2.18c.1-.48.45-.93.83-.86s1,.48,1.15.41.26-.7.48-.83a6.06,6.06,0,0,1,.9-.42c.22-.06.67,0,.67-.16S6,56,5.66,55.79s-1-.22-.87-.51.83-1,1.28-.93a1.45,1.45,0,0,1,1.09.52A2.87,2.87,0,0,1,7.86,56c.1.16.67.13.9.23a1.44,1.44,0,0,0,.67,0,6.2,6.2,0,0,0-.51-1.7c-.32-.51-.93-1.54-.77-1.76s1.34-1,2-1.6,1.38-.93,1.79-.64.35.67,0,1-.7.64-.7.9.42.16.61.09.86-.44,1.15-.12.29.44-.1.76a4,4,0,0,0-.86,1.12c0,.1.48,0,.74,0s.73,0,.63.32a3.27,3.27,0,0,1-.63.9c-.23.26-.61.58-.61.93.77-.07,1.34-.23,2.14-.26a3.62,3.62,0,0,1,2.84,1.86,4.2,4.2,0,0,1,.1,2.66A2.52,2.52,0,0,0,17.29,61.33Z" transform="translate(2.16)"/><path class="cls-19" d="M11,62.23s-.08,4.18,0,5.8.17,5.38.17,5.38" transform="translate(2.16)"/><path class="cls-20" d="M85.33,100s-5.54,1.7-8.35,1.62-12.53-.09-15.94.17-15.68.34-19.86.09a83.32,83.32,0,0,0-10.9.34c-2.82.17-10.91,0-10.91,0l.51-4.61s5.71.08,8.86.08S40.59,98,43.4,98s5.88,1,8.18.69a68.77,68.77,0,0,1,9-1.28c3.32-.09,11.84-.6,11.84-.6" transform="translate(2.16)"/><path class="cls-9" d="M44.36,65.81C43.28,65.68,41.51,67,41.51,68s1.32,1.86,2.91,1.86,2.47-.9,2.47-1.92S45.38,65.94,44.36,65.81Z" transform="translate(2.16)"/><path class="cls-21" d="M100.33,88.52c-1-.17-2,1.11-1.87,2s.42,2.22,2.13,2.14,1.36-2.91,1-3.59S100.33,88.52,100.33,88.52Z" transform="translate(2.16)"/><path class="cls-11" d="M74.51,67.44s.08,5,.08,6.06.34,2.56.43,3.67.34,11.35.51,11.86" transform="translate(2.16)"/><path class="cls-11" d="M91,67.09s.51,7.77.09,9.73-.34,8.71-.09,11.36" transform="translate(2.16)"/><path class="cls-16" d="M67.18,79.21a54.25,54.25,0,0,1,.42,6.66" transform="translate(2.16)"/><path class="cls-16" d="M69.39,79.13s.34,3.84.34,5.12-.08,3.84-.08,3.84" transform="translate(2.16)"/><path class="cls-16" d="M92.82,78.19s4.1,0,5.29-.08" transform="translate(2.16)"/><path class="cls-16" d="M97.26,78.28s.26,3.67.51,5.2" transform="translate(2.16)"/><path class="cls-5" d="M83,71.45c-1.78-.14-4.43,1.62-5.11,3.16s-.51,5,1.27,6.4,3.93,2.22,6.06,1.62,3.32-3.42,3.32-5.63S87.55,71.79,83,71.45Z" transform="translate(2.16)"/><path class="cls-11" d="M82.88,73.8a10.61,10.61,0,0,1,.24,3.79,18.65,18.65,0,0,0,2.3,0" transform="translate(2.16)"/><path class="cls-5" d="M89.51,61.89a34.32,34.32,0,0,1,.34-5.21,15.63,15.63,0,0,0,.34-5.46l-14.06.34s.17,4.69.34,5.72.17,5.12.17,5.12" transform="translate(2.16)"/><path class="cls-22" d="M80.47,51.3A73.59,73.59,0,0,0,81,62.23" transform="translate(2.16)"/><path class="cls-22" d="M85.93,50.88s-.17,5.71-.26,7a42.65,42.65,0,0,0,.26,4.53" transform="translate(2.16)"/><path class="cls-5" d="M91.81,48.74a22.34,22.34,0,0,1-.34,2.39,70.06,70.06,0,0,1-8.18.17c-1.62,0-7.25.6-9.29-.08a4.91,4.91,0,0,1,0-2" transform="translate(2.16)"/><path class="cls-5" d="M72.38,45.5s-.34,2.56.17,3c2.56.25,8.09.34,10.14.25s9.8-.08,10.91-.08A9.82,9.82,0,0,0,93.26,46s-3.84.09-5.29.09-9.8-.43-10.82-.43S72.38,45.5,72.38,45.5Z" transform="translate(2.16)"/><path class="cls-23" d="M45.13,81.91a8.91,8.91,0,0,0-.11-2c-.17-.39-1.11-.9-1.58-.3a6.25,6.25,0,0,0-.64,2.3,14.51,14.51,0,0,0-1.79.43c-.63-.21-.71-.42-.93-.93s-.74-1.34-1.6-1a1.27,1.27,0,0,0-.61,1.82A6.4,6.4,0,0,0,39,83.64s-1.18.67-1.72,1S36.18,86,36.05,86s-.86-.64-1.21-1a1.77,1.77,0,0,0-2-.35c-.67.44-.25,1.28.1,1.76a15.87,15.87,0,0,0,1.18,1.31,20.13,20.13,0,0,0-.45,2.05,6.45,6.45,0,0,0-2,2.4c0,.41.67.86,1.21.86a4.5,4.5,0,0,1,1.86.16,13.29,13.29,0,0,0,4.82,1.89,81.79,81.79,0,0,0,9.08.77,12.14,12.14,0,0,0,4.47-1.09c.84-.42,1.7-1.57,2.21-1.7s1.53-.09,1.85-.48a1.41,1.41,0,0,0,.16-1.34c-.16-.1-1.5-.42-2-1.09a3.85,3.85,0,0,1-.54-1.73,5.21,5.21,0,0,0,1.6-1.25c.28-.54.25-1.37-.2-1.6a1.66,1.66,0,0,0-1.4-.06,6.69,6.69,0,0,0-1.28.7S51.71,84.57,51,83.93c.68-1.22,1-2,.64-2.5A1.07,1.07,0,0,0,50.05,81a3.88,3.88,0,0,0-1.38,1.44A12,12,0,0,0,45.13,81.91Z" transform="translate(2.16)"/><path class="cls-24" d="M35.94,91.55c0-.29-.08-2.72.78-3.81s3-3,4.38-3.33A11.46,11.46,0,0,1,45.8,84a11,11,0,0,1,4.92,2.89,8.28,8.28,0,0,1,1.92,4,1.3,1.3,0,0,1-.77,1.35,9.61,9.61,0,0,1-4.28,1.6,20.09,20.09,0,0,1-5.47-.54c-1-.26-4.25-.8-4.86-.87a9.63,9.63,0,0,1-2.2-1" transform="translate(2.16)"/><path class="cls-25" d="M44.65,85.05a6.88,6.88,0,0,0-3.84,2,3.63,3.63,0,0,0,.26,3.65c.64.67,1.66,1.82,2.84,2A6,6,0,0,0,48.23,91a3.43,3.43,0,0,0,.19-3.49A4,4,0,0,0,44.65,85.05Z" transform="translate(2.16)"/><path class="cls-24" d="M45.7,89c-.69.59-.14,1.73.29,2.08A1.5,1.5,0,0,0,48,91c.5-.78.58-1.51-.19-2.05A1.7,1.7,0,0,0,45.7,89Z" transform="translate(2.16)"/><path class="cls-12" d="M44.58,86.91c-1,0-1.53.64-1.5,1.69a1.45,1.45,0,0,0,1.31,1.54A1.65,1.65,0,0,0,46.09,89,1.7,1.7,0,0,0,44.58,86.91Z" transform="translate(2.16)"/><path class="cls-9" d="M44.36,55.83c-1.14-.15-3.77,2.3-4.35,6.08s1.47,4.8,4,4.74,4-1.09,4.22-3.21S47.43,56.21,44.36,55.83Z" transform="translate(2.16)"/><path class="cls-13" d="M39.76,62.68s5.49-1,8.82.06" transform="translate(2.16)"/><path class="cls-26" d="M38,73.58s-.42-2.47.34-3.07a7.37,7.37,0,0,1,5.29-1.37c3,.17,5.54.77,6.05,1.62s0,2.82,0,2.82" transform="translate(2.16)"/><path class="cls-9" d="M-.58,101.66S22.86,94.24,25,90.91s4.35-8.37,8.87-10.76,13.46-3.58,18.57-1.36,9,8.7,10.49,10.84,8.43,7.17,13.46,8.71,12.36,1.79,14.32,1.79,5.54-.26,5.54-.26l.68-4.61s-7.5.17-12.1,0a33.6,33.6,0,0,1-11.68-3C71.27,91.34,67.26,86,65.39,84s-5.63-6.65-10.74-9.09S39.91,73.07,34.58,75C28.64,77.22,26,80.92,21.92,86.81S-1.47,94.24-1.47,94.24" transform="translate(2.16)"/><path class="cls-26" d="M3,102.94s-.59-18.26.26-20.14S6.84,74.61,11,72.39c0,0,4.77,3.75,6.39,5.89A15.14,15.14,0,0,1,20,85.45c.09,1.62.52,7.51.34,9.73s.26,9.81.26,9.81" transform="translate(2.16)"/><path class="cls-27" d="M3.09,88.09a53.92,53.92,0,0,1,6.56-.25c2.13.17,10.74.42,10.74.42" transform="translate(2.16)"/><path class="cls-27" d="M6.24,104.57s.34-9.73,0-11.87A44.56,44.56,0,0,1,6.5,82.63c.42-2.48,4.26-8.37,4.68-9.22a42.28,42.28,0,0,1,5.12,8.28c.6,1.62.85,6.4.68,8.88s-.08,14.17-.17,14.85" transform="translate(2.16)"/><path class="cls-27" d="M11.19,104.48V92.62c0-2.65.17-8.37-.17-11a52.56,52.56,0,0,1,.16-8.19" transform="translate(2.16)"/><ellipse class="cls-28" cx="79.05" cy="26.06" rx="19.75" ry="19.78"/><path class="cls-5" d="M74.59,65.13l-.42-2.3a32.83,32.83,0,0,1,4.51-.35,61,61,0,0,0,6.65-.34c2.64-.25,4.07-.48,4.93-.48a2.62,2.62,0,0,1,1.53.59l.35,1.86" transform="translate(2.16)"/><path class="cls-5" d="M69.73,64.62a6,6,0,0,0,.18,2.64h11.5c1.88,0,11.76-.25,12.61-.08a6.33,6.33,0,0,0,2.39-.34l-.08-2.73a18.13,18.13,0,0,0-4.52,0c-1.62.34-6.39.34-9.89.51S70.16,64.62,69.73,64.62Z" transform="translate(2.16)"/><path class="cls-21" d="M96.41,105.42A9.93,9.93,0,0,1,95.9,102c.17-1.37.17-5.89.25-10.16a48.52,48.52,0,0,1,6.06-.09,10.73,10.73,0,0,0,2.64-.17l.68,11.87" transform="translate(2.16)"/><path class="cls-21" d="M100.67,81.69c-1.69-.25-3.58,2.56-3.92,4.52s1.88,3.68,3.58,3.59,2.93-.43,3.19-2.48C103.68,86.05,103,82,100.67,81.69Z" transform="translate(2.16)"/><line class="cls-7" x1="93.94" y1="84.76" x2="93.11" y2="84.7"/><path class="cls-16" d="M80.56,78.79l-7.76.08c-.93,0-6.3.26-6.3.26" transform="translate(2.16)"/></g><path class="cls-29" d="M91.36,22.78H80.75c1.78,5.89,5.17,10.32,11.38,12.3a18.24,18.24,0,0,0-3.23,4.34c-5.69-2.19-9-6-11.22-11.28-1.76,4.56-5.05,8.54-11.26,11.28a13.79,13.79,0,0,0-3.26-3.94c7.2-2.9,10-7.37,11.07-12.7H63.81V18.13h11c.15-2.56.12-5.24.15-8l5.84.37c-.06.37-.37.62-1,.71,0,2.28-.09,4.62-.22,6.9H91.36Z" transform="translate(2.16)"/></g></g></svg>